<svg xmlns="http://www.w3.org/2000/svg" xmlns:xlink="http://www.w3.org/1999/xlink" width="300" zoomAndPan="magnify" viewBox="0 0 224.87999 56.249996" height="75" preserveAspectRatio="xMidYMid meet" version="1.0"><defs><g/></defs><g fill="#7ed957" fill-opacity="1"><g transform="translate(55.51824, 37.006573)"><g><path d="M 13.0625 -15.78125 C 13.207031 -15.78125 13.28125 -15.722656 13.28125 -15.609375 L 13.28125 -0.171875 C 13.28125 -0.0546875 13.207031 0 13.0625 0 L 10.453125 0 C 10.441406 0 10.410156 -0.00390625 10.359375 -0.015625 C 10.316406 -0.0351562 10.289062 -0.0507812 10.28125 -0.0625 L 3.015625 -10.453125 L 3.015625 -3.78125 L 0 -3.78125 L 0 -15.609375 C 0 -15.722656 0.0664062 -15.78125 0.203125 -15.78125 L 2.828125 -15.78125 C 2.847656 -15.78125 2.878906 -15.773438 2.921875 -15.765625 C 2.960938 -15.765625 2.988281 -15.753906 3 -15.734375 L 10.28125 -5.328125 L 10.28125 -15.609375 C 10.28125 -15.722656 10.359375 -15.78125 10.515625 -15.78125 Z M 13.0625 -15.78125 "/></g></g></g><g fill="#7ed957" fill-opacity="1"><g transform="translate(69.466685, 37.006573)"><g><path d="M 12.390625 -0.234375 C 12.421875 -0.179688 12.414062 -0.128906 12.375 -0.078125 C 12.332031 -0.0234375 12.28125 0 12.21875 0 L 9.5 0 C 9.40625 0 9.34375 -0.0390625 9.3125 -0.125 L 6.203125 -8.921875 L 3.125 -0.125 C 3.101562 -0.0390625 3.035156 0 2.921875 0 L 0.21875 0 C 0.125 0 0.0625 -0.0234375 0.03125 -0.078125 C 0 -0.128906 -0.00390625 -0.179688 0.015625 -0.234375 L 6 -15.671875 C 6.019531 -15.742188 6.082031 -15.78125 6.1875 -15.78125 C 6.300781 -15.78125 6.367188 -15.742188 6.390625 -15.671875 Z M 12.390625 -0.234375 "/></g></g></g><g fill="#7ed957" fill-opacity="1"><g transform="translate(82.487865, 37.006573)"><g><path d="M 6.4375 -2.703125 C 6.582031 -2.703125 6.65625 -2.644531 6.65625 -2.53125 L 6.65625 -0.171875 C 6.65625 -0.0546875 6.582031 0 6.4375 0 L 0.21875 0 C 0.0703125 0 0 -0.0546875 0 -0.171875 L 0 -2.53125 C 0 -2.644531 0.0703125 -2.703125 0.21875 -2.703125 L 1.828125 -2.703125 L 1.828125 -15.78125 L 4.859375 -15.78125 L 4.859375 -2.703125 Z M 6.4375 -2.703125 "/></g></g></g><g fill="#7ed957" fill-opacity="1"><g transform="translate(89.471953, 37.006573)"><g><path d="M 1.328125 -13.078125 C 1.179688 -13.078125 1.109375 -13.140625 1.109375 -13.265625 L 1.109375 -15.609375 C 1.109375 -15.722656 1.179688 -15.78125 1.328125 -15.78125 L 6.6875 -15.78125 C 6.820312 -15.78125 6.890625 -15.722656 6.890625 -15.609375 L 6.890625 -13.078125 Z M 3.890625 -10.375 L 6.890625 -10.375 L 6.890625 -4.65625 C 6.890625 -3.882812 6.773438 -3.226562 6.546875 -2.6875 C 6.316406 -2.15625 6.019531 -1.71875 5.65625 -1.375 C 5.300781 -1.039062 4.921875 -0.773438 4.515625 -0.578125 C 4.117188 -0.390625 3.742188 -0.253906 3.390625 -0.171875 C 3.035156 -0.0976562 2.742188 -0.0507812 2.515625 -0.03125 C 2.285156 -0.0078125 2.171875 0 2.171875 0 L 0.21875 0 C 0.0703125 0 0 -0.0546875 0 -0.171875 L 0 -2.75 C 0 -2.863281 0.0703125 -2.921875 0.21875 -2.921875 L 2.171875 -2.921875 C 2.609375 -2.921875 2.941406 -3.007812 3.171875 -3.1875 C 3.398438 -3.363281 3.566406 -3.5625 3.671875 -3.78125 C 3.773438 -4.007812 3.835938 -4.210938 3.859375 -4.390625 C 3.878906 -4.566406 3.890625 -4.65625 3.890625 -4.65625 Z M 3.890625 -10.375 "/></g></g></g><g fill="#7ed957" fill-opacity="1"><g transform="translate(96.712516, 37.006573)"><g><path d="M 12.390625 -0.234375 C 12.421875 -0.179688 12.414062 -0.128906 12.375 -0.078125 C 12.332031 -0.0234375 12.28125 0 12.21875 0 L 9.5 0 C 9.40625 0 9.34375 -0.0390625 9.3125 -0.125 L 6.203125 -8.921875 L 3.125 -0.125 C 3.101562 -0.0390625 3.035156 0 2.921875 0 L 0.21875 0 C 0.125 0 0.0625 -0.0234375 0.03125 -0.078125 C 0 -0.128906 -0.00390625 -0.179688 0.015625 -0.234375 L 6 -15.671875 C 6.019531 -15.742188 6.082031 -15.78125 6.1875 -15.78125 C 6.300781 -15.78125 6.367188 -15.742188 6.390625 -15.671875 Z M 12.390625 -0.234375 "/></g></g></g><g fill="#7ed957" fill-opacity="1"><g transform="translate(109.733696, 37.006573)"><g><path d="M 8.53125 -2.9375 C 8.675781 -2.9375 8.75 -2.875 8.75 -2.75 L 8.75 -0.171875 C 8.75 -0.0546875 8.675781 0 8.53125 0 L 0.21875 0 C 0.0703125 0 0 -0.0546875 0 -0.171875 L 0 -2.9375 Z M 3.015625 -5.953125 L 0 -5.953125 L 0 -15.609375 C 0 -15.722656 0.0703125 -15.78125 0.21875 -15.78125 L 2.828125 -15.78125 C 2.953125 -15.78125 3.015625 -15.722656 3.015625 -15.609375 Z M 3.015625 -5.953125 "/></g></g></g><g fill="#7ed957" fill-opacity="1"><g transform="translate(118.927438, 37.006573)"><g><path d="M 11.640625 -15.78125 C 11.773438 -15.78125 11.84375 -15.722656 11.84375 -15.609375 L 11.84375 -5.265625 C 11.84375 -4.160156 11.582031 -3.210938 11.0625 -2.421875 C 10.539062 -1.640625 9.832031 -1.039062 8.9375 -0.625 C 8.039062 -0.207031 7.035156 0 5.921875 0 C 4.835938 0 3.84375 -0.210938 2.9375 -0.640625 C 2.039062 -1.066406 1.328125 -1.675781 0.796875 -2.46875 C 0.265625 -3.257812 0 -4.191406 0 -5.265625 L 0 -12.921875 L 2.984375 -12.921875 L 2.984375 -5.28125 C 3.078125 -4.507812 3.40625 -3.921875 3.96875 -3.515625 C 4.539062 -3.109375 5.191406 -2.90625 5.921875 -2.90625 C 6.421875 -2.90625 6.894531 -2.988281 7.34375 -3.15625 C 7.789062 -3.320312 8.15625 -3.582031 8.4375 -3.9375 C 8.71875 -4.300781 8.859375 -4.742188 8.859375 -5.265625 L 8.859375 -15.609375 C 8.859375 -15.722656 8.929688 -15.78125 9.078125 -15.78125 Z M 11.640625 -15.78125 "/></g></g></g><g fill="#7ed957" fill-opacity="1"><g transform="translate(131.356748, 37.006573)"><g><path d="M 14.125 -3.8125 L 14.125 -8.828125 L 10.109375 -0.75 C 10.078125 -0.664062 10.015625 -0.625 9.921875 -0.625 L 7.5 -0.625 C 7.394531 -0.625 7.328125 -0.664062 7.296875 -0.75 L 3.015625 -9.03125 L 3.015625 -0.171875 C 3.015625 -0.0546875 2.941406 0 2.796875 0 L 0.203125 0 C 0.0664062 0 0 -0.0546875 0 -0.171875 L 0 -15.609375 C 0 -15.722656 0.0664062 -15.78125 0.203125 -15.78125 L 2.84375 -15.78125 C 2.945312 -15.78125 3.015625 -15.742188 3.046875 -15.671875 L 8.703125 -4.109375 L 14.09375 -15.671875 C 14.144531 -15.742188 14.21875 -15.78125 14.3125 -15.78125 L 16.90625 -15.78125 C 17.050781 -15.78125 17.125 -15.722656 17.125 -15.609375 L 17.125 -3.8125 Z M 14.125 -3.8125 "/></g></g></g><g fill="#7ed957" fill-opacity="1"><g transform="translate(149.349649, 37.006573)"><g><path d="M 6.4375 -2.703125 C 6.582031 -2.703125 6.65625 -2.644531 6.65625 -2.53125 L 6.65625 -0.171875 C 6.65625 -0.0546875 6.582031 0 6.4375 0 L 0.21875 0 C 0.0703125 0 0 -0.0546875 0 -0.171875 L 0 -2.53125 C 0 -2.644531 0.0703125 -2.703125 0.21875 -2.703125 L 1.828125 -2.703125 L 1.828125 -15.78125 L 4.859375 -15.78125 L 4.859375 -2.703125 Z M 6.4375 -2.703125 "/></g></g></g><g fill="#7ed957" fill-opacity="1"><g transform="translate(156.333736, 37.006573)"><g><path d="M 12.390625 -0.234375 C 12.421875 -0.179688 12.414062 -0.128906 12.375 -0.078125 C 12.332031 -0.0234375 12.28125 0 12.21875 0 L 9.5 0 C 9.40625 0 9.34375 -0.0390625 9.3125 -0.125 L 6.203125 -8.921875 L 3.125 -0.125 C 3.101562 -0.0390625 3.035156 0 2.921875 0 L 0.21875 0 C 0.125 0 0.0625 -0.0234375 0.03125 -0.078125 C 0 -0.128906 -0.00390625 -0.179688 0.015625 -0.234375 L 6 -15.671875 C 6.019531 -15.742188 6.082031 -15.78125 6.1875 -15.78125 C 6.300781 -15.78125 6.367188 -15.742188 6.390625 -15.671875 Z M 12.390625 -0.234375 "/></g></g></g></svg>